<svg width="1200" height="300" viewBox="0 0 1200 300" fill="none" xmlns="http://www.w3.org/2000/svg">
  <defs>
    <linearGradient id="iconBg" x1="30" y1="30" x2="230" y2="250" gradientUnits="userSpaceOnUse">
      <stop offset="0" stop-color="#DC2626"/>
      <stop offset="1" stop-color="#7F1D1D"/>
    </linearGradient>
    <linearGradient id="accent" x1="278" y1="238" x2="1140" y2="238" gradientUnits="userSpaceOnUse">
      <stop offset="0" stop-color="#DC2626"/>
      <stop offset="1" stop-color="#F97316"/>
    </linearGradient>
  </defs>

  <rect x="30" y="30" width="220" height="220" rx="44" fill="url(#iconBg)"/>

  <path d="M78 178 C110 130, 145 130, 176 164 C192 182, 206 186, 224 172"
        stroke="#F8FAFC" stroke-width="13" stroke-linecap="round" fill="none"/>
  <circle cx="78" cy="178" r="9" fill="#F8FAFC"/>
  <circle cx="130" cy="145" r="8" fill="#F8FAFC"/>
  <circle cx="176" cy="164" r="8" fill="#F8FAFC"/>
  <circle cx="224" cy="172" r="8" fill="#F8FAFC"/>

  <rect x="60" y="72" width="16" height="16" fill="#F8FAFC"/>
  <rect x="76" y="72" width="16" height="16" fill="#991B1B"/>
  <rect x="60" y="88" width="16" height="16" fill="#991B1B"/>
  <rect x="76" y="88" width="16" height="16" fill="#F8FAFC"/>

  <text x="280" y="148" fill="#111827" font-size="108" font-weight="800"
        font-family="Segoe UI, Trebuchet MS, Arial, sans-serif">Race Predictor</text>
  <text x="284" y="206" fill="#4B5563" font-size="44" font-weight="600"
        font-family="Segoe UI, Trebuchet MS, Arial, sans-serif">Motorsport Analytics</text>

  <path d="M278 238 H1140" stroke="url(#accent)" stroke-width="9" stroke-linecap="round"/>
</svg>
